<?xml version="1.0" encoding="utf-8"?>
<!-- Generator: Adobe Illustrator 21.0.0, SVG Export Plug-In . SVG Version: 6.00 Build 0)  -->
<svg version="1.1" xmlns="http://www.w3.org/2000/svg" xmlns:xlink="http://www.w3.org/1999/xlink" x="0px" y="0px"
	 viewBox="0 0 172.8 108.7" style="enable-background:new 0 0 172.8 108.7;" xml:space="preserve">
<style type="text/css">
	.st0{display:none;}
	.st1{display:inline;}
	.st2{fill:#3FAE2A;}
	.st3{fill:#3FAE2B;}
</style>
<g id="Capa_1" class="st0">
	<g class="st1">
		<path class="st2" d="M173.1,79.1c-4.3,0-8.3,0-12.3,0c-2.5,0-3-0.5-3-2.9c0-15.8-0.1-31.6,0-47.4c0.1-10.6,8.4-18.9,18.9-19.1
			c4.9-0.1,9.8,0,14.7,0c3.1,0,4.6,1.5,4.6,4.6c0,31.7,0,63.4,0,95c0,5.1-3.2,8.3-8.3,8.3c-2.1,0-4.2,0-6.3,0
			c-5.1,0-8.3-3.2-8.3-8.5c0-9.2,0-18.4,0-27.6C173.1,80.9,173.1,80.1,173.1,79.1z"/>
		<path class="st2" d="M7.7,87.4c0-7.5,0-15,0-22.6c0-1.2-0.3-1.9-1.5-2.5c-3.7-2-6-5.1-6.1-9.4C0,44.9,0,36.9,0,28.8c0-5,0-10,0-15
			c0-1.7,0.7-3.2,2.3-3.6C3.5,9.9,5,10.1,6,10.6c1.5,0.7,1.5,2.4,1.5,3.9c0,6,0,12.1,0,18.1c0,1.7,0,3.5,0,5.2
			c0.1,2.8,1.6,4.6,3.9,4.6c2.2,0,3.8-1.8,3.8-4.6c0-7.6,0-15.2,0-22.8c0-3.5,1.3-5.4,3.8-5.4c2.5,0,3.8,1.9,3.8,5.4
			c0,6.8,0,13.6,0,20.4c0,0.4,0,0.8,0,1.2c0,3.8,1.3,5.8,3.9,5.7c2.6,0,3.8-2,3.8-5.8c0-7.2,0-14.4,0-21.6c0-3.5,1.4-5.4,3.9-5.3
			c2.4,0.1,3.7,1.9,3.7,5.3c0,12,0,23.9,0,35.9c0,5.3-1.9,9.3-6.7,11.8c-0.5,0.3-0.9,1.4-0.9,2.2c-0.1,14.5,0,29.1-0.1,43.6
			c0,1.2,0,2.5-0.3,3.6c-0.8,3.1-3.7,5.4-7,5.6c-2.4,0.1-4.7,0-7.1,0c-5.3,0-8.4-3.1-8.4-8.5C7.6,101.9,7.7,94.6,7.7,87.4z"/>
		<g>
			<path class="st2" d="M97.3,28.8c-18.7,0-33.9,15.3-33.9,34.2s15.2,34.2,33.9,34.2c18.7,0,33.9-15.3,33.9-34.2S116,28.8,97.3,28.8
				z"/>
			<path class="st2" d="M97.3,9.7C68.1,9.7,44.4,33.6,44.4,63s23.7,53.3,52.8,53.3s52.8-23.9,52.8-53.3S126.5,9.7,97.3,9.7z
				 M97.3,101.5C76.2,101.5,59,84.2,59,63s17.2-38.6,38.3-38.6c21.1,0,38.3,17.3,38.3,38.6S118.4,101.5,97.3,101.5z"/>
		</g>
	</g>
</g>
<g id="Capa_2" class="st0">
	<g class="st1">
		<circle class="st2" cx="139.1" cy="25" r="22.4"/>
		<path class="st2" d="M145.2,58.3l-53.5-32c-2.1-1.3-4.5-1.7-6.8-1.3H42.6L0.7,54.4l6.8,9.8l37.4-20h26.5L57.7,76.9
			c-0.1,0.3,0.1,0.6,0.4,0.6h97.2c0.2,0,0.4-0.2,0.4-0.4C155.8,69.4,151.8,62.3,145.2,58.3z"/>
		<path class="st2" d="M162.7,104.6c-8.4,0-13.9-3.8-19.2-7.6c-6.1-4.3-12.3-8.7-24.8-8.7c-8.7,0-13.7,3-19.5,6.6
			c-6.2,3.8-13.3,8.1-25.2,8.1c-13.2,0-21-5-27.3-9c-4.9-3.1-8.7-5.6-14.2-5.6c-15.9,0-22.8,12-23.1,12.5l-7.3-3.7
			c0.4-0.7,9.5-16.7,30.4-16.7c8,0,13.5,3.5,18.8,6.9c5.9,3.8,12,7.7,22.7,7.7c9.5,0,15-3.3,20.7-6.8c6-3.7,12.8-7.8,23.9-7.8
			c15.2,0,23.3,5.7,29.8,10.3c4.8,3.4,8.5,6,14.2,6c15,0,23.4-9.7,23.8-10.1l6.5,5C192.6,92,181.8,104.6,162.7,104.6z"/>
		<path class="st2" d="M167.3,126c-8.1,0-13.3-3.8-18.4-7.6c-5.8-4.3-11.8-8.7-23.8-8.7c-8.4,0-13.2,3-18.7,6.5
			c-6,3.8-12.7,8.1-24.1,8.1c-12.7,0-20.2-5-26.2-9c-4.7-3.1-8.4-5.6-13.6-5.6c-15.4,0-22.1,12.4-22.1,12.5l-7.1-3.7
			c0.4-0.7,9.1-16.7,29.2-16.7c7.7,0,12.9,3.5,18,6.9c5.6,3.8,11.5,7.7,21.7,7.7c9.1,0,14.3-3.3,19.9-6.8c5.8-3.7,12.3-7.8,23-7.8
			c14.6,0,22.3,5.7,28.5,10.3c4.6,3.4,8.2,6,13.6,6c14.5,0,22.7-10,22.8-10.1l6.2,5C195.9,113.4,185.6,126,167.3,126z"/>
	</g>
</g>
<g id="Capa_3">
	<polygon class="st3" points="172.8,47.3 159.7,47.3 159.7,20.3 138.4,20.3 138.4,0.7 117.2,0.7 117.2,47.3 56.7,47.3 56.7,0.7 
		35.4,0.7 35.4,20.3 14.2,20.3 14.2,47.3 0,47.3 0,65.7 14.2,65.7 14.2,89.1 35.4,89.1 35.4,108.7 56.7,108.7 56.7,65.7 117.2,65.7 
		117.2,108.7 138.4,108.7 138.4,89.1 159.7,89.1 159.7,65.7 172.8,65.7 	"/>
</g>
</svg>
