<?xml version="1.0" encoding="utf-8"?>
<!-- Generator: Adobe Illustrator 20.1.0, SVG Export Plug-In . SVG Version: 6.00 Build 0)  -->
<svg version="1.1" id="Capa_1" xmlns="http://www.w3.org/2000/svg" xmlns:xlink="http://www.w3.org/1999/xlink" x="0px" y="0px"
	 viewBox="0 0 41 63.4" style="enable-background:new 0 0 41 63.4;" xml:space="preserve">
<style type="text/css">
	.st0{fill:#B3B3B3;}
	.st1{fill:#D9E021;}
	.st2{opacity:0.5;fill:#A3A819;}
	.st3{fill:#8E9307;}
	.st4{fill:#FFFFFF;}
</style>
<polygon class="st0" points="41,63 20.2,53.2 0,63 0,2.7 41,2.7 "/>
<polygon class="st1" points="41,60.3 20.2,50.5 0,60.3 0,0 41,0 "/>
<polygon class="st2" points="41,60.3 20.2,50.5 20.4,0 41,0 "/>
<g>
	<g>
		<path class="st3" d="M25,23.5c1,0,2,0,3,0c0.5,0,1,0.1,1.4,0.4c1,0.8,1.2,2.1,0.5,3.1c-0.1,0.2-0.2,0.4-0.1,0.6
			c0.2,0.6,0.1,1.3-0.2,1.8c-0.1,0.1-0.1,0.3-0.1,0.5c0.1,0.7-0.1,1.4-0.5,2c-0.1,0.1-0.1,0.3-0.1,0.4c0,1.6-0.9,2.5-2.5,2.6
			c-1.7,0.1-3.5-0.1-5.1-0.6c-0.9-0.3-1.9-0.6-2.8-0.8c-0.3-0.1-0.6-0.3-0.6-0.7c0-0.1,0-0.2,0-0.3c0-2.2,0-4.5,0-6.7
			c0-0.7,0.1-0.7,0.7-1c0.3-0.1,0.6-0.4,0.8-0.7c0.6-0.7,1.2-1.5,1.8-2.2c0.7-0.7,1-1.6,1.2-2.6c0.1-0.5,0.3-0.9,0.5-1.4
			c0.1-0.3,0.4-0.4,0.8-0.4c1.4,0.1,2.2,0.8,2.3,2.2c0.1,1.1-0.1,2-0.7,2.9C25.1,23.1,25.1,23.3,25,23.5z"/>
		<path class="st3" d="M17.1,29.2c0,1.1,0,2.3,0,3.4c0,0.7-0.3,0.9-0.9,0.9c-0.9,0-1.9,0-2.8,0c-0.6,0-0.9-0.3-0.9-0.9
			c0-2.3,0-4.6,0-6.9c0-0.6,0.3-0.9,0.9-0.9c1,0,2,0,2.9,0c0.6,0,0.8,0.3,0.9,0.9C17.1,26.9,17.1,28.1,17.1,29.2z M14.6,32.2
			c0.4,0,0.7-0.3,0.7-0.7c0-0.4-0.3-0.7-0.7-0.7c-0.4,0-0.7,0.3-0.7,0.7C13.9,31.8,14.2,32.1,14.6,32.2z"/>
	</g>
	<path class="st3" d="M21.4,12.6c4.2,0.1,7.8,1.7,10.6,5c0.1,0.1,0.2,0.2,0.4,0.2c0.9-0.2,2,0.6,2.1,1.6c0.1,1.1-0.6,2-1.8,2.1
		c-1,0-1.8-0.7-1.9-1.7c0-0.3,0.1-0.6,0.1-0.8c0-0.1,0-0.3-0.1-0.4c-1.8-2.2-4.2-3.6-7-4.2C23,14.1,22.1,14,21.2,14
		c-2.9,0.1-5.4,1-7.6,2.8c-2.4,1.9-3.9,4.4-4.5,7.5c-0.1,0.8-0.2,1.5-0.3,2.3c0,5,3.1,9.6,7.5,11.5c0.2,0.1,0.3,0.1,0.5,0.2
		c0.4,0.2,0.6,0.6,0.5,1c-0.1,0.3-0.6,0.5-1,0.3c-1.2-0.5-2.4-1.1-3.4-1.9c-2.7-2.1-4.4-4.9-5.1-8.2c-0.3-1.2-0.4-2.4-0.3-3.6
		c0.2-3.6,1.6-6.6,4.1-9.2c2-2.1,4.5-3.3,7.4-3.8C19.7,12.7,20.5,12.6,21.4,12.6"/>
	<g>
		<path class="st4" d="M23.9,22.4c1,0,2,0,3,0c0.5,0,1,0.1,1.4,0.4c1,0.8,1.2,2.1,0.5,3.1c-0.1,0.2-0.2,0.4-0.1,0.6
			c0.2,0.6,0.1,1.3-0.2,1.8c-0.1,0.1-0.1,0.3-0.1,0.5c0.1,0.7-0.1,1.4-0.5,2c-0.1,0.1-0.1,0.3-0.1,0.4c0,1.6-0.9,2.5-2.5,2.6
			c-1.7,0.1-3.5-0.1-5.1-0.6c-0.9-0.3-1.9-0.6-2.8-0.8c-0.3-0.1-0.6-0.3-0.6-0.7c0-0.1,0-0.2,0-0.3c0-2.2,0-4.5,0-6.7
			c0-0.7,0.1-0.7,0.7-1c0.3-0.1,0.6-0.4,0.8-0.7c0.6-0.7,1.2-1.5,1.8-2.2c0.7-0.7,1-1.6,1.2-2.6c0.1-0.5,0.3-0.9,0.5-1.4
			c0.1-0.3,0.4-0.4,0.8-0.4c1.4,0.1,2.2,0.8,2.3,2.2c0.1,1.1-0.1,2-0.7,2.9C24.1,22,24,22.2,23.9,22.4z"/>
		<path class="st4" d="M16,28.2c0,1.1,0,2.3,0,3.4c0,0.7-0.3,0.9-0.9,0.9c-0.9,0-1.9,0-2.8,0c-0.6,0-0.9-0.3-0.9-0.9
			c0-2.3,0-4.6,0-6.9c0-0.6,0.3-0.9,0.9-0.9c1,0,2,0,2.9,0c0.6,0,0.8,0.3,0.9,0.9C16,25.9,16,27,16,28.2z M13.5,31.1
			c0.4,0,0.7-0.3,0.7-0.7c0-0.4-0.3-0.7-0.7-0.7c-0.4,0-0.7,0.3-0.7,0.7C12.8,30.7,13.1,31.1,13.5,31.1z"/>
	</g>
	<path class="st4" d="M20.3,11.5c4.2,0.1,7.8,1.7,10.6,5c0.1,0.1,0.2,0.2,0.4,0.2c0.9-0.2,2,0.6,2.1,1.6c0.1,1.1-0.6,2-1.8,2.1
		c-1,0-1.8-0.7-1.9-1.7c0-0.3,0.1-0.6,0.1-0.8c0-0.1,0-0.3-0.1-0.4c-1.8-2.2-4.2-3.6-7-4.2C21.9,13,21,12.9,20.1,13
		c-2.9,0.1-5.4,1-7.6,2.8C10,17.6,8.6,20.1,8,23.2c-0.1,0.8-0.2,1.5-0.3,2.3c0,5,3.1,9.6,7.5,11.5c0.2,0.1,0.3,0.1,0.5,0.2
		c0.4,0.2,0.6,0.6,0.5,1c-0.1,0.3-0.6,0.5-1,0.3c-1.2-0.5-2.4-1.1-3.4-1.9c-2.7-2.1-4.4-4.9-5.1-8.2c-0.3-1.2-0.4-2.4-0.3-3.6
		c0.2-3.6,1.6-6.6,4.1-9.2c2-2.1,4.5-3.3,7.4-3.8C18.6,11.6,19.5,11.5,20.3,11.5"/>
</g>
</svg>
