<?xml version="1.0" encoding="utf-8"?>
<!-- Generator: Adobe Illustrator 19.1.0, SVG Export Plug-In . SVG Version: 6.00 Build 0)  -->
<svg version="1.1" id="Capa_1" xmlns="http://www.w3.org/2000/svg" xmlns:xlink="http://www.w3.org/1999/xlink" x="0px" y="0px"
	 viewBox="-408 263.6 141.3 35.4" style="enable-background:new -408 263.6 141.3 35.4;" xml:space="preserve">
<style type="text/css">
	.st0{fill:#3FAE2A;}
</style>
<path class="st0" d="M-390.1,276.4c-0.7,0-1.1,0.5-1.1,1.2v8.4c0,0.7,0.5,1.2,1.1,1.2s1.2-0.5,1.2-1.2v-8.4
	C-388.9,276.9-389.4,276.4-390.1,276.4"/>
<path class="st0" d="M-370.7,280.7c0-0.4,0-0.7,0.1-0.9c0.3-0.9,1-1.4,2.1-1.4c1,0,1.8,0.5,2.1,1.4c0.1,0.2,0.1,0.5,0.1,0.9H-370.7z
	 M-363.9,281.7c0-1-0.1-1.8-0.4-2.5c-0.6-1.8-2.1-2.9-4.2-2.9s-3.6,1.1-4.2,2.9c-0.2,0.7-0.3,1.5-0.3,2.6c0,1.1,0.1,1.9,0.4,2.6
	c0.6,1.9,2.1,2.9,4.3,2.9c1.5,0,2.8-0.5,3.8-1.5c0.2-0.2,0.4-0.5,0.4-0.8c0-0.6-0.4-1-1-1c-0.3,0-0.5,0.1-0.8,0.3
	c-0.8,0.6-1.4,0.8-2.3,0.8c-1.2,0-2-0.6-2.3-1.6c-0.1-0.3-0.1-0.6-0.2-1h5.8C-364.3,282.7-363.9,282.3-363.9,281.7"/>
<path class="st0" d="M-381,283.6c0,1.1-0.9,1.7-2.3,1.7c-1.2,0-1.9-0.4-1.9-1.3c0-1,0.7-1.4,2.3-1.4h1.9V283.6z M-378,286.2
	c0-0.2-0.1-0.4-0.2-0.6l-0.4-0.6c-0.1-0.2-0.2-0.4-0.2-0.9v-3.6c0-2.7-1.4-4-4.2-4c-1.3,0-2.5,0.3-3.2,0.8c-0.4,0.2-0.6,0.5-0.6,0.9
	c0,0.6,0.4,1,1,1c0.2,0,0.4-0.1,0.6-0.2c0.4-0.2,1.2-0.5,2-0.5c1.5,0,2.2,0.6,2.2,2v0.4h-2.2c-2.7,0-4.2,1.2-4.2,3.4
	c0,2.1,1.4,3.3,3.8,3.3c1.3,0,2.3-0.3,3.1-1.1l0.2,0.4c0.3,0.4,0.6,0.6,1,0.6C-378.5,287.3-378,286.8-378,286.2"/>
<path class="st0" d="M-357.2,280.7l-1.1-0.1c-1.6-0.2-1.8-0.6-1.8-1.1c0-0.7,0.6-1.1,1.7-1.1c0.7,0,1.4,0.2,2.1,0.5
	c0.3,0.1,0.5,0.2,0.7,0.2c0.6,0,1-0.5,1-1c0-0.4-0.2-0.7-0.7-1c-0.9-0.5-2-0.8-3.2-0.8c-2.5,0-4,1.3-4,3.3c0,1.8,1.2,2.9,3.3,3.1
	l1.1,0.1c1.6,0.2,1.8,0.6,1.8,1.2c0,0.8-0.7,1.3-2,1.3c-1.1,0-2-0.4-2.7-0.9c-0.3-0.2-0.5-0.2-0.7-0.2c-0.6,0-1.1,0.5-1.1,1.1
	c0,0.4,0.2,0.7,0.5,1c0.6,0.4,2,1.2,3.8,1.2c2.7,0,4.4-1.3,4.4-3.6C-354,282-355.1,281-357.2,280.7"/>
<path class="st0" d="M-375.5,276.4c-0.7,0-1.1,0.5-1.1,1.2v10.1c0,0.9-0.2,1-1,1.1c-0.6,0.1-1,0.5-1,1.1c0,0.6,0.5,1.1,1.1,1.1
	c2.1,0,3.2-1.1,3.2-3.3v-10.1C-374.3,276.9-374.8,276.4-375.5,276.4"/>
<path class="st0" d="M-393.6,276.6c-0.2-0.1-0.3-0.1-0.5-0.1c-0.4,0-0.8,0.3-1,0.7c0,0-2.1,5.1-2.3,5.7l-0.1,0.3l-2.9-6
	c-0.2-0.4-0.6-0.6-1-0.6c-0.2,0-0.3,0-0.5,0.1c-0.6,0.3-0.8,1-0.5,1.5l4,8.4c0.2,0.4,0.6,0.6,1,0.6l0,0l0,0c0.5,0,0.9-0.3,1-0.7
	c0-0.1,3.3-8.2,3.3-8.3C-392.7,277.5-393,276.9-393.6,276.6"/>
<path class="st0" d="M-375.5,270.4c-2.1-2.6-4.8-4.5-7.9-5.7c-9.5-3.4-20,1.5-23.5,10.9c-3.4,9.4,1.4,19.8,10.7,23.4l0,0l0,0
	c0.2,0,1.3,0.2,1.3-0.8c0-1.1-1.1-1.1-1.3-1.3l0,0c-7.9-3.4-11.8-12.5-8.9-20.6c3.1-8.5,12.5-12.8,21-9.8c2.6,1,4.9,2.6,6.7,4.6
	c-0.4,0.5-0.6,1.1-0.6,1.7c0,1.4,1.1,2.4,2.4,2.4c1.4,0,2.4-1.1,2.4-2.4C-373.1,271.5-374.2,270.4-375.5,270.4"/>
<path class="st0" d="M-307.7,286.1c0-0.1,0-0.1-0.1-0.2c0,0-0.1,0-0.2,0c-0.1,0-0.2,0-0.3,0s-0.2,0-0.3,0c-0.2,0-0.3,0-0.4-0.1
	c0-0.1,0-0.3,0-0.6v-9.1c0-0.1,0-0.2-0.1-0.2c0,0-0.1,0-0.2,0h-0.5c-0.3,0-1,0.2-1,1.1v8.7c0,0.7,0.1,1.2,0.4,1.4
	c0.3,0.3,0.7,0.4,1.2,0.4c0.2,0,0.4,0,0.7,0s0.5-0.1,0.7-0.2c0.1-0.1,0.2-0.1,0.2-0.1s0-0.1,0-0.2L-307.7,286.1z"/>
<path class="st0" d="M-303.9,286.1c0-0.1,0-0.1-0.1-0.2c0,0-0.1,0-0.2,0c-0.1,0-0.2,0-0.3,0s-0.2,0-0.3,0c-0.2,0-0.3,0-0.4-0.1
	c-0.1-0.1-0.1-0.3-0.1-0.6v-9.1c0-0.1,0-0.2-0.1-0.2c0,0-0.1,0-0.2,0h-0.4c-0.3,0-1,0.2-1,1.2v8.6c0,0.7,0.1,1.2,0.4,1.4
	c0.3,0.3,0.7,0.4,1.2,0.4c0.2,0,0.4,0,0.7,0c0.2,0,0.5-0.1,0.7-0.2c0.1-0.1,0.2-0.1,0.2-0.1s0-0.1,0-0.2L-303.9,286.1z"/>
<path class="st0" d="M-316.6,282.5c0-0.3,0.1-0.5,0.2-0.8c0.1-0.2,0.2-0.5,0.4-0.6c0.1-0.2,0.3-0.3,0.5-0.4s0.5-0.2,0.7-0.2
	c0.3,0,0.6,0.1,0.8,0.2s0.4,0.2,0.5,0.4s0.2,0.4,0.3,0.6c0.1,0.2,0.1,0.5,0.1,0.8H-316.6z M-314.9,278.9c-0.5,0-1,0.1-1.4,0.3
	c-0.4,0.2-0.8,0.5-1.1,0.8c-0.3,0.4-0.6,0.8-0.7,1.4c-0.2,0.5-0.3,1.2-0.3,1.8c0,1.5,0.3,2.6,1,3.2c0.6,0.7,1.6,1,2.8,1
	c0.4,0,0.8,0,1.3-0.1c0.5-0.1,0.9-0.3,1.2-0.5c0.1-0.1,0.2-0.2,0.1-0.4l-0.5-0.8c-0.1-0.1-0.2-0.2-0.3-0.1c-0.2,0.1-0.5,0.2-0.8,0.3
	c-0.3,0.1-0.6,0.1-0.9,0.1c-0.3,0-0.6,0-0.8-0.1c-0.2-0.1-0.5-0.2-0.7-0.4c-0.2-0.2-0.3-0.4-0.4-0.7c-0.1-0.3-0.2-0.6-0.2-1h4
	c0.2,0,0.3,0,0.5-0.1c0.1,0,0.3-0.1,0.4-0.2c0.1-0.1,0.2-0.2,0.3-0.4s0.1-0.4,0.1-0.7c0-1.1-0.3-1.9-0.8-2.5
	C-312.9,279.2-313.7,278.9-314.9,278.9"/>
<path class="st0" d="M-298.6,285.8c-0.1,0.1-0.3,0.1-0.4,0.1c-0.2,0-0.3,0.1-0.4,0.1s-0.3,0-0.4,0c-0.1,0-0.2,0-0.3,0
	c-0.5,0-0.9-0.1-1.2-0.3c-0.3-0.2-0.4-0.5-0.4-0.9c0-0.3,0.1-0.6,0.2-0.7c0.1-0.2,0.3-0.3,0.4-0.4c0.2-0.1,0.4-0.2,0.6-0.2
	c0.2,0,0.4,0,0.5,0h1.4C-298.6,283.5-298.6,285.8-298.6,285.8z M-299.8,278.9c-0.4,0-0.9,0-1.4,0.1s-1,0.2-1.4,0.4
	c-0.1,0.1-0.2,0.2-0.1,0.3l0.2,0.9c0,0.1,0.1,0.2,0.1,0.2s0.1,0,0.2,0c0.3-0.1,0.6-0.2,1-0.2c0.4-0.1,0.8-0.1,1.1-0.1
	c0.3,0,0.6,0,0.8,0.1c0.2,0.1,0.4,0.2,0.5,0.3c0.1,0.1,0.2,0.3,0.2,0.4c0,0.2,0.1,0.4,0.1,0.6v0.3h-1.7c-0.6,0-1.1,0.1-1.5,0.2
	c-0.4,0.2-0.8,0.4-1,0.6c-0.3,0.3-0.5,0.6-0.6,0.9c-0.1,0.3-0.2,0.7-0.2,1.1s0.1,0.7,0.2,1c0.1,0.3,0.3,0.6,0.5,0.8
	c0.3,0.2,0.6,0.4,1,0.6c0.4,0.1,1,0.2,1.6,0.2c0.3,0,0.5,0,0.8,0c0.3,0,0.5,0,0.8-0.1c0.3,0,0.5-0.1,0.8-0.2
	c0.3-0.1,0.5-0.2,0.7-0.3s0.3-0.3,0.3-0.5v-4.7c0-0.9-0.2-1.6-0.7-2.1S-298.8,278.9-299.8,278.9"/>
<path class="st0" d="M-345.6,280.9h-4.5v-1.8c0-0.3,0.1-0.6,0.2-0.8c0.1-0.2,0.4-0.3,0.8-0.3h4c0.1,0,0.2,0,0.3-0.1
	c0,0,0.1-0.1,0.1-0.3v-1c0-0.1,0-0.2-0.1-0.3c0-0.1-0.1-0.1-0.3-0.1h-4.2c-0.5,0-0.9,0.1-1.3,0.2c-0.3,0.2-0.6,0.4-0.8,0.6
	c-0.2,0.3-0.4,0.6-0.4,0.9c-0.1,0.3-0.1,0.7-0.1,1.1v7.8c0,0.1,0,0.2,0.1,0.3c0.1,0,0.1,0.1,0.3,0.1h0.5c0.3,0,1-0.2,1-1.2v-3.6h4.5
	c0.1,0,0.2,0,0.3-0.1c0-0.1,0.1-0.2,0.1-0.3v-0.9c0-0.2,0-0.2-0.1-0.3C-345.3,280.9-345.4,280.9-345.6,280.9"/>
<path class="st0" d="M-328.9,285.8c-0.1,0.1-0.3,0.1-0.4,0.1c-0.2,0-0.3,0.1-0.4,0.1c-0.1,0-0.3,0-0.4,0s-0.2,0-0.3,0
	c-0.5,0-0.9-0.1-1.2-0.3c-0.3-0.2-0.4-0.5-0.4-0.9c0-0.3,0.1-0.6,0.2-0.7c0.1-0.2,0.3-0.3,0.4-0.4c0.2-0.1,0.4-0.2,0.6-0.2
	c0.2,0,0.4,0,0.6,0h1.4L-328.9,285.8L-328.9,285.8z M-330.1,278.9c-0.4,0-0.9,0-1.4,0.1s-1,0.2-1.4,0.4c-0.1,0.1-0.2,0.2-0.1,0.3
	l0.2,0.9c0,0.1,0.1,0.2,0.1,0.2s0.1,0,0.2,0c0.3-0.1,0.6-0.2,1-0.2c0.4-0.1,0.8-0.1,1.1-0.1c0.3,0,0.6,0,0.8,0.1
	c0.2,0.1,0.4,0.2,0.5,0.3c0.1,0.1,0.2,0.3,0.2,0.4c0,0.2,0.1,0.4,0.1,0.6v0.3h-1.7c-0.6,0-1.1,0.1-1.5,0.2c-0.4,0.2-0.7,0.4-1,0.6
	c-0.3,0.3-0.4,0.6-0.6,0.9c-0.1,0.3-0.2,0.7-0.2,1.1s0,0.7,0.2,1c0.1,0.3,0.3,0.6,0.5,0.8c0.3,0.2,0.6,0.4,1,0.6
	c0.4,0.1,1,0.2,1.6,0.2c0.2,0,0.5,0,0.8,0c0.3,0,0.5,0,0.8-0.1c0.3,0,0.5-0.1,0.8-0.2c0.2-0.1,0.5-0.2,0.7-0.3
	c0.2-0.1,0.3-0.3,0.3-0.5v-4.7c0-0.9-0.2-1.6-0.7-2.1S-329.1,278.9-330.1,278.9"/>
<path class="st0" d="M-340.1,285.8c-0.1,0.1-0.3,0.1-0.4,0.1c-0.2,0-0.3,0.1-0.4,0.1s-0.3,0-0.4,0c-0.1,0-0.2,0-0.3,0
	c-0.5,0-0.9-0.1-1.2-0.3c-0.3-0.2-0.4-0.5-0.4-0.9c0-0.3,0.1-0.6,0.2-0.7c0.1-0.2,0.3-0.3,0.4-0.4c0.2-0.1,0.4-0.2,0.6-0.2
	c0.2,0,0.4,0,0.5,0h1.4C-340.1,283.5-340.1,285.8-340.1,285.8z M-341.4,278.9c-0.4,0-0.9,0-1.4,0.1s-1,0.2-1.4,0.4
	c-0.1,0.1-0.2,0.2-0.1,0.3l0.2,0.9c0,0.1,0.1,0.2,0.1,0.2s0.1,0,0.2,0c0.3-0.1,0.6-0.2,1-0.2c0.4-0.1,0.8-0.1,1.1-0.1
	c0.3,0,0.6,0,0.8,0.1c0.2,0.1,0.4,0.2,0.5,0.3c0.1,0.1,0.2,0.3,0.2,0.4c0,0.2,0.1,0.4,0.1,0.6v0.3h-1.7c-0.6,0-1.1,0.1-1.5,0.2
	c-0.4,0.2-0.7,0.4-1,0.6c-0.3,0.3-0.4,0.6-0.6,0.9c-0.1,0.3-0.1,0.6-0.1,1c0,0.4,0.1,0.7,0.2,1c0.1,0.3,0.3,0.6,0.5,0.8
	c0.3,0.2,0.6,0.4,1,0.6c0.4,0.1,1,0.2,1.6,0.2c0.2,0,0.5,0,0.8,0c0.3,0,0.5,0,0.8-0.1c0.3,0,0.5-0.1,0.8-0.2
	c0.2-0.1,0.5-0.2,0.7-0.3c0.2-0.1,0.3-0.3,0.3-0.5v-4.7c0-0.9-0.2-1.6-0.7-2.1C-339.5,279.2-340.3,278.9-341.4,278.9"/>
<path class="st0" d="M-334.2,286.1c0-0.1,0-0.1-0.1-0.2c0,0-0.1,0-0.2,0c-0.1,0-0.2,0-0.3,0s-0.2,0-0.3,0c-0.2,0-0.3,0-0.4-0.1
	c-0.1-0.1-0.1-0.3-0.1-0.6v-9.1c0-0.1,0-0.2-0.1-0.2c-0.1,0-0.1,0-0.2,0h-0.5c-0.3,0-1,0.2-1,1.2v8.6c0,0.7,0.1,1.2,0.4,1.4
	c0.3,0.3,0.7,0.4,1.2,0.4c0.2,0,0.4,0,0.7,0c0.2,0,0.5-0.1,0.7-0.2c0.1-0.1,0.2-0.1,0.2-0.1s0-0.1,0-0.2V286.1z"/>
<path class="st0" d="M-321,284.5c-0.1,0.3-0.2,0.6-0.4,0.8c-0.2,0.2-0.4,0.4-0.7,0.5c-0.3,0.1-0.5,0.1-0.9,0.1c-0.2,0-0.4,0-0.7,0
	c-0.3,0-0.5-0.1-0.8-0.2v-5c0.3-0.1,0.6-0.2,0.9-0.2c0.3,0,0.5-0.1,0.7-0.1c0.6,0,1.1,0.2,1.4,0.7c0.3,0.4,0.5,1.1,0.5,2.1
	C-320.9,283.7-320.9,284.1-321,284.5 M-319.9,280.1c-0.3-0.4-0.6-0.7-1.1-0.9c-0.4-0.2-1-0.3-1.5-0.3c-0.3,0-0.6,0-0.9,0.1
	c-0.3,0-0.7,0.1-1,0.2v-3c0-0.1,0-0.2-0.1-0.2c0,0-0.1,0-0.2,0h-0.5c-0.3,0-1,0.2-1,1.2v9.4c0,0.1,0,0.2,0,0.2
	c0,0.1,0.1,0.1,0.2,0.1c0.5,0.2,0.9,0.4,1.5,0.4c0.5,0.1,1.1,0.1,1.6,0.1c0.7,0,1.2-0.1,1.7-0.3s0.9-0.5,1.2-0.9s0.5-0.9,0.7-1.4
	c0.1-0.5,0.2-1.1,0.2-1.7s-0.1-1.2-0.2-1.7C-319.4,280.9-319.6,280.5-319.9,280.1"/>
<path class="st0" d="M-295,285.5c-0.1,0-0.1,0-0.2,0c-0.5,0.1-0.8,0.5-0.8,1s0.4,1,1,1l0,0l0,0c0.5,0,1-0.4,1-1
	C-294,286-294.4,285.5-295,285.5"/>
<path class="st0" d="M-287.7,285.6c0-0.1-0.1-0.1-0.1-0.2c0,0-0.1,0-0.2,0c-0.2,0.1-0.5,0.2-0.8,0.3c-0.3,0.1-0.7,0.1-1,0.1
	c-0.4,0-0.7-0.1-1-0.2c-0.3-0.1-0.5-0.3-0.6-0.6c-0.2-0.2-0.3-0.5-0.3-0.8c-0.1-0.3-0.1-0.7-0.1-1c0-0.4,0-0.7,0.1-1
	c0.1-0.3,0.2-0.6,0.4-0.9c0.2-0.2,0.4-0.4,0.6-0.6c0.3-0.2,0.6-0.2,0.9-0.2c0.3,0,0.6,0,0.9,0.1s0.5,0.1,0.8,0.2
	c0.1,0.1,0.2,0.1,0.3,0c0,0,0.1-0.1,0.1-0.2l0.4-0.9c0.1-0.1,0.1-0.2,0.1-0.2c0-0.1-0.1-0.1-0.2-0.2c-0.4-0.2-0.7-0.3-1.1-0.4
	c-0.4-0.1-0.8-0.1-1.2-0.1c-0.6,0-1.1,0.1-1.6,0.3s-0.9,0.5-1.2,0.9c-0.3,0.4-0.6,0.8-0.8,1.4c-0.2,0.5-0.3,1.1-0.3,1.8
	c0,1.4,0.3,2.4,0.9,3.2c0.6,0.7,1.5,1.1,2.7,1.1c0.4,0,0.9,0,1.4-0.1c0.5-0.1,1-0.2,1.4-0.5c0.2-0.1,0.2-0.2,0.1-0.4L-287.7,285.6z"
	/>
<path class="st0" d="M-281.5,284.3c-0.1,0.3-0.2,0.6-0.3,0.9c-0.2,0.3-0.4,0.5-0.6,0.6c-0.2,0.1-0.6,0.2-0.9,0.2
	c-0.7,0-1.2-0.2-1.5-0.7c-0.3-0.5-0.4-1.2-0.4-2c0-0.4,0-0.7,0.1-1.1c0.1-0.3,0.2-0.6,0.4-0.9c0.2-0.2,0.4-0.4,0.6-0.6
	c0.2-0.1,0.5-0.2,0.9-0.2c0.4,0,0.7,0.1,0.9,0.2c0.2,0.1,0.4,0.3,0.6,0.6c0.1,0.3,0.2,0.6,0.3,0.9c0.1,0.3,0.1,0.7,0.1,1.1
	C-281.4,283.6-281.5,284-281.5,284.3 M-283.4,279c-0.6,0-1.1,0.1-1.5,0.3c-0.5,0.2-0.9,0.5-1.2,0.8c-0.3,0.4-0.6,0.8-0.8,1.3
	c-0.2,0.5-0.3,1.1-0.3,1.8c0,1.4,0.3,2.5,0.9,3.2c0.6,0.7,1.6,1.1,2.8,1.1c1.3,0,2.2-0.4,2.9-1.1c0.6-0.7,1-1.8,1-3.2
	c0-1.3-0.3-2.4-1-3.1C-281.2,279.3-282.1,279-283.4,279"/>
<path class="st0" d="M-266.9,281.2c-0.1-0.5-0.3-0.9-0.6-1.2c-0.3-0.3-0.7-0.6-1.1-0.8c-0.5-0.2-1-0.3-1.7-0.3
	c-0.6,0-1.1,0.1-1.6,0.2s-0.9,0.3-1.3,0.6c-0.3-0.3-0.7-0.5-1.2-0.6c-0.4-0.1-1-0.2-1.6-0.2c-0.1,0-0.3,0-0.5,0c-0.2,0-0.4,0-0.5,0
	c-0.2,0-0.4,0-0.5,0c-0.2,0-0.3,0-0.3,0c-0.2,0-0.4,0.1-0.5,0.2s-0.2,0.2-0.3,0.3c-0.1,0.1-0.1,0.2-0.1,0.4c0,0.1,0,0.3,0,0.5v6.6
	c0,0.1,0,0.2,0.1,0.2c0,0,0.1,0.1,0.2,0.1h1.2c0.1,0,0.2,0,0.2-0.1c0,0,0.1-0.1,0.1-0.2v-6.3c0.1,0,0.2,0,0.3,0c0.1,0,0.2,0,0.3,0
	s0.2,0,0.3,0c0.1,0,0.2,0,0.2,0c0.4,0,0.8,0.1,1.1,0.2c0.3,0.1,0.5,0.3,0.6,0.5c0.2,0.2,0.3,0.5,0.3,0.7c0.1,0.3,0.1,0.6,0.1,1v4.2
	c0,0.1,0,0.2,0.1,0.2c0,0,0.1,0.1,0.2,0.1h1.2c0.1,0,0.2,0,0.2-0.1c0.1,0,0.1-0.1,0.1-0.2v-4.1c0-0.4,0-0.8-0.1-1.1
	c0-0.3-0.1-0.6-0.2-0.9c0.2-0.1,0.5-0.2,0.8-0.3c0.3-0.1,0.6-0.1,0.9-0.1c0.8,0,1.3,0.2,1.6,0.6s0.5,1,0.5,1.9v4.1
	c0,0.1,0,0.2,0.1,0.2c0,0,0.1,0.1,0.2,0.1h1.2c0.1,0,0.2,0,0.2-0.1c0,0,0.1-0.1,0.1-0.2V283C-266.7,282.2-266.8,281.7-266.9,281.2"
	/>
</svg>
