<?xml version="1.0" encoding="utf-8"?>
<!-- Generator: Adobe Illustrator 19.1.0, SVG Export Plug-In . SVG Version: 6.00 Build 0)  -->
<svg version="1.1" id="Capa_1" xmlns="http://www.w3.org/2000/svg" xmlns:xlink="http://www.w3.org/1999/xlink" x="0px" y="0px"
	 viewBox="0 0 100 100" style="enable-background:new 0 0 100 100;" xml:space="preserve">
<style type="text/css">
	.st0{fill:#439941;}
	.st1{fill:#FFFFFF;}
</style>
<g>
	<circle class="st0" cx="50" cy="50" r="50"/>
	<g>
		<path class="st1" d="M48,73.4c-0.1,0.2-0.5,0.3-1,0.3l-27.8,0c-2.2,0-3.8-0.4-4.8-1.3c-0.9-0.9-1.4-2.5-1.4-4.9
			c0-1.6,0.6-3.5,1.7-5.7c1.1-2.2,2.8-4.4,4.9-6.6c2-2.1,4.1-3.9,6.2-5.4c2.1-1.5,4-2.7,5.5-3.7c1.5-0.9,2.8-1.8,3.9-2.6
			c1-0.8,1.9-1.5,2.5-2.2c0.6-0.7,1-1.4,1.3-2.2c0.2-0.7,0.4-1.5,0.4-2.3c0-1.8-0.7-3.2-2.2-4.4c-1.4-1.1-3.6-1.7-6.6-1.7
			c-1.9,0-3.8,0.3-5.8,1c-2,0.6-3.8,1.6-5.6,2.9c-0.4,0.2-0.8,0.4-1.1,0.4c-0.3,0-0.6-0.2-0.9-0.6l-2.9-4.1
			c-0.4-0.7-0.3-1.3,0.3-1.8c2.4-1.8,5-3.2,7.8-4.2c2.8-1,5.7-1.5,8.7-1.5c2.3,0,4.5,0.3,6.6,0.8c2.1,0.5,3.9,1.4,5.4,2.5
			c1.6,1.1,2.8,2.5,3.7,4.2c0.9,1.7,1.4,3.7,1.4,5.9c0,1.8-0.3,3.5-0.8,5c-0.6,1.5-1.4,2.9-2.4,4.1c-1.1,1.3-2.3,2.5-3.9,3.6
			c-1.5,1.1-3.2,2.2-5,3.2c-1.4,0.8-2.8,1.7-4.2,2.7c-1.4,1-2.7,2.1-3.9,3.3c-1.2,1.2-2.3,2.5-3.3,3.8c-1,1.3-1.7,2.7-2.3,4.2
			l24.5,0c0.5,0,0.9,0.1,1,0.3c0.1,0.2,0.2,0.6,0.2,1.1l0,4.6C48.2,72.9,48.1,73.2,48,73.4z"/>
		<g>
			<path class="st1" d="M68.6,61.6l-6.1,10.6c-0.3,0.5-0.6,0.9-0.9,1.1c-0.3,0.3-0.9,0.4-1.5,0.4h-7.8c-0.5,0-0.8-0.1-1-0.4
				c-0.1-0.3-0.1-0.6,0.2-1.1L63,54.7L52.7,38.9c-0.2-0.2-0.2-0.5-0.2-0.8s0.3-0.4,0.8-0.4h8.2c0.6,0,1.1,0.1,1.5,0.3
				c0.3,0.2,0.6,0.5,0.9,1l4.8,8.8l4.9-8.8c0.3-0.5,0.6-0.8,0.9-1c0.3-0.2,0.8-0.3,1.4-0.3h8.1c0.5,0,0.8,0.1,0.8,0.4
				c0,0.3,0,0.5-0.1,0.8L74.1,54.6l11.7,17.7c0.2,0.4,0.3,0.7,0.2,1c-0.1,0.3-0.4,0.4-1,0.4h-8c-0.8,0-1.3-0.1-1.6-0.4
				c-0.3-0.3-0.6-0.6-0.9-1.1L68.6,61.6z"/>
		</g>
	</g>
</g>
</svg>
