<?xml version="1.0" encoding="utf-8"?>
<!-- Generator: Adobe Illustrator 19.1.0, SVG Export Plug-In . SVG Version: 6.00 Build 0)  -->
<svg version="1.1" id="Capa_1" xmlns="http://www.w3.org/2000/svg" xmlns:xlink="http://www.w3.org/1999/xlink" x="0px" y="0px"
	 viewBox="0 0 154.1 154.1" style="enable-background:new 0 0 154.1 154.1;" xml:space="preserve">
<style type="text/css">
	.st0{fill:#BE0033;}
	.st1{fill:#FFFFFF;}
</style>
<path class="st0" d="M77.8,0C84.8,0,91.6,3.5,97,9l33.8,41.8c2.5-2.3,5.4-3.3,8.4-3.3c7.4,0,14.9,6.4,14.9,15.2v65.1
	c0,14.1-12.2,26.4-26.3,26.4h0H62.6c-12.4,0-20.1-14.5-12.1-23.2L8.8,97.2c-9.6-9.6-13-23.7-1.9-34.9L62.4,6.9C67.2,2,72.6,0,77.8,0
	"/>
<path class="st1" d="M88.5,104.7h-5.4c-0.8,0-1.1-0.2-1.1-0.9V77.2c0-0.8,0.3-0.9,1.1-0.9h5.4c1,0,1.2,0.2,1.2,0.9v26.5
	C89.7,104.6,89.5,104.7,88.5,104.7"/>
<path class="st1" d="M110.9,97.3c0.9-0.4,1.1-0.3,1.4,0.5l1.5,3.9c0.4,0.7,0.4,1.1-0.4,1.5c-3.1,1.7-6.8,2.2-9.7,2.2
	c-8.2,0-12.6-4.8-12.6-14.3c0-9,5-14.6,13.1-14.6c2.9,0,5.9,0.6,8.3,1.8c0.9,0.4,0.9,0.6,0.6,1.5l-1.5,4.1c-0.4,0.8-0.6,0.7-1.6,0.5
	c-1.8-0.6-3.6-0.9-5.2-0.9c-4.2,0-5.7,3.6-5.7,7.7c0,4.4,1.3,7.5,5.9,7.5C107.1,98.5,109.4,97.8,110.9,97.3"/>
<path class="st1" d="M136.9,103.4c-3.2,1.5-7.6,1.9-11.1,1.9c-9.5,0-12.3-3.9-12.3-8.8c0-5.4,3.6-9.4,11.1-9.4h5.8v-0.8
	c0-1.9-0.6-3.7-4.6-3.7c-2.1,0-5.5,0.4-7.4,1c-0.9,0.2-1.2,0-1.3-0.7l-0.8-3.7c-0.2-0.8-0.1-1,0.5-1.2c3.2-1.1,6.7-1.6,10.1-1.6
	c7.6,0,11.1,3.3,11.1,9.7v15.2C138,102.2,137.9,102.8,136.9,103.4 M126.2,92.2c-1.9,0-4.8,0.4-4.8,3.7c0,2.5,1.8,3.3,4.6,3.3
	c0.8,0,2.9-0.1,4.4-0.7v-6.4H126.2z"/>
<path class="st1" d="M74.6,77.4c-1.5-0.6-3.2-0.8-5.5-0.8c-4.5,0-6.4,3.5-6.4,3.5l0-2.6c0,0-0.2-1.1-1.4-1.1h-2.4h-1.1h-1.3
	c-0.8,0-1.4,0.6-1.4,1.4l0,14.5c0,2.4-1.1,5.8-4.9,5.8c-5.3,0-5-6.5-5-6.5v-14c0-0.5-0.5-1.2-1.4-1.2h-5c-1,0-1.4,0.7-1.4,1.5V91
	c0,6.8,1.3,11,5.6,12.7c1.5,0.6,3.2,0.8,5.5,0.8c4.5,0,6.4-3.5,6.4-3.5l0,2.4c0,0,0.2,1.1,1.4,1.1h2.4H60h1.3c0.8,0,1.4-0.6,1.4-1.4
	l0-14.3c0-2.4,1.1-5.8,4.9-5.8c5.3,0,5,6.5,5,6.5v14.2c0,0.6,0.2,0.8,0.6,0.9c0.1,0,0.3,0,0.5,0h5.5c1,0,1.1-0.2,1.1-0.9V90.1
	C80.2,83.3,78.9,79,74.6,77.4"/>
<path class="st1" d="M85.8,71.4c-2,0-2.9-1.3-2.9-3.4c0-2.1,1.1-3.4,2.9-3.4c2,0,3,1.3,3,3.4C88.8,70.1,87.9,71.4,85.8,71.4
	 M85.9,65.8c-1,0-1.4,0.9-1.4,2.1c0,1.3,0.3,2.2,1.4,2.2c1.1,0,1.4-1,1.4-2.1C87.3,66.8,87,65.8,85.9,65.8"/>
<path class="st1" d="M90.9,73.2h-1c-0.1,0-0.2,0-0.2-0.2v-6.2c0-0.1,0-0.2,0.2-0.3c0.6-0.3,1.4-0.4,2.1-0.4c1.8,0,2.4,1.2,2.4,2.6
	c0,1.4-0.7,2.6-2.2,2.6c-0.4,0-0.7,0-1.1-0.1v1.8C91.1,73.2,91.1,73.2,90.9,73.2 M91.9,67.4c-0.2,0-0.5,0-0.7,0.1v2.6
	c0.3,0.1,0.6,0.1,0.8,0.1c0.6,0,1.1-0.4,1.1-1.4C93,67.7,92.6,67.4,91.9,67.4"/>
<path class="st1" d="M97.5,71.4c-1.6,0-2.4-1-2.4-2.6c0-1.6,0.9-2.6,2.4-2.6c1.6,0,2.4,1,2.4,2.6C99.9,70.5,99.1,71.4,97.5,71.4
	 M97.5,67.4c-0.7,0-1,0.5-1,1.4c0,0.9,0.3,1.5,1,1.5c0.7,0,1-0.6,1-1.4C98.5,68,98.2,67.4,97.5,67.4"/>
<path class="st1" d="M102,71.3h-1c-0.1,0-0.2,0-0.2-0.2v-4.1c0-0.5,0.1-0.7,0.7-0.8c0.2,0,0.5,0,0.7,0c0.8,0,1.7,0.2,2.3,0.7
	c0.1,0.1,0.1,0.1,0,0.2l-0.5,0.8c-0.1,0.1-0.1,0.1-0.3,0c-0.3-0.3-0.8-0.5-1.3-0.5c-0.1,0-0.3,0-0.4,0v3.7
	C102.2,71.3,102.2,71.3,102,71.3"/>
<path class="st1" d="M108.2,71.2c-0.5,0.1-1,0.2-1.3,0.2c-1.1,0-1.5-0.5-1.5-1.4v-2.7h-0.7c-0.1,0-0.2-0.1-0.2-0.2v-0.5
	c0-0.1,0-0.1,0.2-0.2l0.7-0.2l0.1-0.9c0-0.2,0.1-0.2,0.2-0.2l0.9-0.3c0.1,0,0.2,0,0.2,0.2v1.3h1c0.1,0,0.2,0.1,0.2,0.2v0.7
	c0,0.1,0,0.2-0.2,0.2h-1v2.4c0,0.4,0.2,0.5,0.6,0.5c0.2,0,0.5,0,0.7-0.1c0.1,0,0.2,0,0.2,0.1l0.1,0.8
	C108.3,71.1,108.3,71.2,108.2,71.2"/>
<path class="st1" d="M111.9,70.2v-3.7c0-0.1,0-0.2,0.2-0.2h1c0.1,0,0.2,0.1,0.2,0.2v4.1c0,0.4-0.1,0.7-0.6,0.8
	c-0.3,0.1-1,0.1-1.4,0.1c-1.8,0-2.5-0.7-2.5-2.5v-2.5c0-0.1,0-0.2,0.2-0.2h1c0.1,0,0.2,0.1,0.2,0.2V69c0,0.8,0.2,1.2,1.1,1.2
	C111.4,70.3,111.6,70.3,111.9,70.2"/>
<path class="st1" d="M115.7,67.4v3.8c0,0.1,0,0.2-0.2,0.2h-1c-0.1,0-0.2,0-0.2-0.2v-4.1c0-0.4,0.1-0.7,0.6-0.8
	c0.3-0.1,1-0.1,1.4-0.1c1.8,0,2.6,0.7,2.6,2.5v2.5c0,0.1,0,0.2-0.2,0.2h-1c-0.1,0-0.2,0-0.2-0.2v-2.6c0-0.8-0.2-1.2-1.1-1.2
	C116.2,67.3,115.9,67.3,115.7,67.4"/>
<path class="st1" d="M120.8,65.8c-0.4,0-0.8-0.3-0.8-0.8c0-0.5,0.4-0.8,0.8-0.8c0.4,0,0.8,0.3,0.8,0.8
	C121.6,65.5,121.2,65.8,120.8,65.8 M121.2,71.3h-1c-0.1,0-0.2,0-0.2-0.2v-4.6c0-0.1,0.1-0.2,0.2-0.2h1c0.2,0,0.2,0,0.2,0.2v4.6
	C121.4,71.3,121.4,71.3,121.2,71.3"/>
<path class="st1" d="M124.7,66.2c0.3,0,0.6,0,1,0.1v-1.7c0-0.1,0-0.2,0.2-0.2h1c0.1,0,0.2,0,0.2,0.2v5.9c0,0.1,0,0.3,0,0.4
	c0,0.4-1.7,0.6-2.3,0.6c-1.8,0-2.4-1.1-2.4-2.6C122.5,67.4,123.1,66.2,124.7,66.2 M125,70.2c0.2,0,0.5,0,0.7-0.1v-2.7
	c-0.3-0.1-0.6-0.1-0.8-0.1c-0.6,0-1.1,0.4-1.1,1.5C123.9,69.9,124.3,70.2,125,70.2"/>
<path class="st1" d="M132.2,71.1c-0.6,0.3-1.4,0.4-2,0.4c-1.7,0-2.2-0.7-2.2-1.6c0-1,0.6-1.7,2-1.7h1V68c0-0.4-0.1-0.7-0.8-0.7
	c-0.4,0-1,0.1-1.3,0.2c-0.2,0-0.2,0-0.2-0.1l-0.1-0.7c0-0.1,0-0.2,0.1-0.2c0.6-0.2,1.2-0.3,1.8-0.3c1.4,0,2,0.6,2,1.7v2.8
	C132.4,70.8,132.4,71,132.2,71.1 M130.3,69c-0.4,0-0.9,0.1-0.9,0.7c0,0.4,0.3,0.6,0.8,0.6c0.2,0,0.5,0,0.8-0.1V69H130.3z"/>
<path class="st1" d="M135.6,66.2c0.3,0,0.6,0,1,0.1v-1.7c0-0.1,0-0.2,0.2-0.2h1c0.1,0,0.2,0,0.2,0.2v5.9c0,0.1,0,0.3,0,0.4
	c0,0.4-1.7,0.6-2.3,0.6c-1.8,0-2.4-1.1-2.4-2.6C133.3,67.4,134,66.2,135.6,66.2 M135.8,70.2c0.2,0,0.5,0,0.7-0.1v-2.7
	c-0.3-0.1-0.6-0.1-0.8-0.1c-0.6,0-1.1,0.4-1.1,1.5C134.7,69.9,135.1,70.2,135.8,70.2"/>
<path class="st1" d="M47.9,70.9l2,0.4c0.2,0.1,0.3,0.1,0.5-0.2l2.5-3.7c0.1-0.2,0.1-0.3-0.2-0.4l-2.9-0.5c-0.3-0.1-0.5-0.2-0.7,0.2
	l-1.5,3.8C47.6,70.7,47.6,70.8,47.9,70.9"/>
</svg>
