<?xml version="1.0" encoding="utf-8"?>
<!-- Generator: Adobe Illustrator 19.1.0, SVG Export Plug-In . SVG Version: 6.00 Build 0)  -->
<svg version="1.1" id="Capa_1" xmlns="http://www.w3.org/2000/svg" xmlns:xlink="http://www.w3.org/1999/xlink" x="0px" y="0px"
	 viewBox="0 0 429 215.2" style="enable-background:new 0 0 429 215.2;" xml:space="preserve">
<style type="text/css">
	.st0{fill:#3FAE2A;}
</style>
<g>
	<path class="st0" d="M102.7,82.3v49.5c0,4.2,2.8,7.1,6.7,7.1c4,0,6.8-2.9,6.8-7.1V82.3c0-4.2-2.8-7.1-6.8-7.1
		C105.5,75.2,102.7,78.2,102.7,82.3"/>
	<path class="st0" d="M224.1,95c1.8-5.3,6.1-8.3,12.2-8.3c6.1,0,10.4,2.9,12.2,8.2c0.5,1.5,0.7,3.2,0.8,5.4l-26,0
		C223.4,98.2,223.6,96.5,224.1,95 M259.5,131.1c1.4-1.3,2.1-3,2.1-4.8c0-3.3-2.5-5.8-5.8-5.8c-1.6,0-3.2,0.6-4.6,1.8
		c-4.6,3.5-8.3,4.8-13.4,4.8c-6.8,0-11.6-3.3-13.6-9.2c-0.6-1.9-0.9-3.6-0.9-5.9h34.1c3.3,0,5.6-2.3,5.6-5.5c0-6-0.7-10.8-2.1-14.9
		c-3.4-10.8-12.4-17-24.8-17c-12.1,0-21.1,6.2-24.7,17.1c-1.4,4.1-1.9,8.6-1.9,15.5c0,6.5,0.6,11.2,2.1,15.5
		c3.6,11.1,12.6,17.2,25.4,17.2C245.6,139.8,253.4,136.8,259.5,131.1"/>
	<path class="st0" d="M162.9,111.8v5.8c0,6.3-5,10.1-13.5,10.1c-7.3,0-10.9-2.5-10.9-7.8c0-5.8,3.8-8.1,13.2-8.1L162.9,111.8z
		 M125.5,120.3c0,12.2,8.4,19.4,22.5,19.4c7.9,0,13.6-2,18.1-6.2l1.4,2.2c1.6,2.2,3.5,3.2,5.9,3.2c4,0,6.9-2.7,6.9-6.5
		c0-1.2-0.4-2.6-1.1-3.7L177,125c-0.7-1.5-0.9-2.4-0.9-5.4V98.2c0-15.8-8.4-23.7-24.9-23.7c-7.6,0-14.5,1.7-18.9,4.7
		c-2.1,1.2-3.3,3.2-3.3,5.5c0,3.6,2.4,6,6,6c1,0,2.4-0.4,3.7-1c2.5-1.3,7-2.8,11.5-2.8c8.9,0,12.7,3.4,12.7,11.5l0,2.1h-12.8
		C134.3,100.4,125.5,107.5,125.5,120.3"/>
	<path class="st0" d="M273.2,132.9c3.7,2.6,11.4,6.9,22.5,6.9c16.1,0,25.7-7.8,25.7-20.9c0-10.8-6.5-17-19.2-18.4l-6.2-0.6
		c-9.5-0.9-10.3-3.6-10.3-6.5c0-4.2,3.6-6.7,9.8-6.7c4.1,0,8.3,1,12.5,3c1.7,0.8,3,1.1,4.4,1.1c3.3,0,6-2.7,6-6
		c0-2.4-1.3-4.3-3.9-5.7c-5.2-2.9-11.7-4.5-18.5-4.5c-14.7,0-23.5,7.3-23.5,19.7c0,10.5,6.8,17,19.1,18.3l6.2,0.6
		c9.6,1,10.3,3.5,10.3,6.9c0,4.6-4.3,7.4-11.5,7.4c-6.5,0-11.4-2.4-15.9-5c-1.6-0.9-2.9-1.3-4.2-1.3c-3.6,0-6.4,2.8-6.4,6.3
		C270,129.5,271.1,131.5,273.2,132.9"/>
	<path class="st0" d="M183,160.7c12.6,0,18.7-6.4,18.7-19.4v-59c0-4.2-2.8-7.1-6.7-7.1c-4,0-6.7,2.9-6.7,7.1v59.1
		c0,5.4-1.1,6.1-5.7,6.5c-3.6,0.3-6,2.8-6,6.4C176.5,158.1,179.2,160.7,183,160.7"/>
	<path class="st0" d="M85.8,76c-2.6,0.2-4.8,1.7-5.8,4.1c0,0-12.2,30.1-13.5,33.3l-0.7,1.6l-17-35.4c-1.1-2.3-3.4-3.8-6-3.8
		c-1,0-2,0.2-2.9,0.7c-3.3,1.6-4.7,5.6-3.1,8.9l23.7,49.2c1.1,2.3,3.5,3.8,6,3.8h0l0.2,0c2.7-0.1,5.1-1.9,6-4.4
		c0.1-0.4,19.4-48.4,19.6-48.9c1.4-3.4-0.2-7.3-3.6-8.7C87.8,76.1,86.8,75.9,85.8,76"/>
	<path class="st0" d="M143.9,6.5C88.4-13.8,26.7,15,6.5,70.5c-20.1,55.1,8.1,116.3,62.8,137h0c0.1,0,0.1,0,0.1,0
		c1,0.2,7.5,1.1,7.6-5c0.1-6.5-6.6-6.6-7.7-7.4v0c-46.2-19.9-69.4-72.8-52-120.7C35.3,24.8,90.4-0.8,140,17.3
		c18,6.6,33.4,18.1,44.6,33.5l8.3,1.5l1.7-7.3C181.9,27.3,164.4,14,143.9,6.5"/>
	<path class="st0" d="M208.9,54c0,7.9-6.4,14.4-14.4,14.4c-7.9,0-14.4-6.4-14.4-14.4c0-7.9,6.4-14.4,14.4-14.4
		C202.4,39.7,208.9,46.1,208.9,54"/>
	<path class="st0" d="M310.3,211v-18.6c0-3.6-1-6.4-2.9-8.3c-1.9-1.9-4.9-2.8-9.1-2.8c-1.7,0-3.6,0.1-5.6,0.4
		c-2,0.3-3.8,0.8-5.4,1.4c-0.5,0.2-0.7,0.6-0.5,1.3l0.8,3.5c0.1,0.4,0.2,0.6,0.4,0.7c0.2,0.1,0.5,0,1-0.1c1-0.3,2.3-0.6,3.8-0.8
		c1.6-0.3,3.1-0.4,4.4-0.4c1.3,0,2.3,0.1,3.1,0.4c0.8,0.3,1.4,0.7,1.9,1.1c0.4,0.5,0.8,1.1,0.9,1.7c0.2,0.7,0.2,1.4,0.2,2.2v1h-6.6
		c-2.4,0-4.4,0.3-6,0.9c-1.6,0.6-3,1.4-4,2.4c-1,1-1.8,2.2-2.2,3.5c-0.5,1.3-0.7,2.7-0.7,4.2c0,1.4,0.2,2.7,0.6,4
		c0.4,1.3,1.1,2.3,2.1,3.3c1,0.9,2.4,1.7,4.1,2.2c1.7,0.6,3.9,0.8,6.5,0.8c1,0,2,0,3-0.1c1-0.1,2.1-0.2,3.2-0.3
		c1.1-0.2,2.1-0.4,3.1-0.7c1-0.3,1.9-0.6,2.8-1.1C309.9,212.6,310.3,211.9,310.3,211 M303.3,208.3c-0.5,0.2-1.1,0.4-1.7,0.5
		c-0.6,0.1-1.2,0.2-1.8,0.3c-0.5,0.1-1.1,0.1-1.6,0.2c-0.5,0-0.8,0.1-1.1,0.1c-1.9,0-3.4-0.4-4.6-1.1c-1.1-0.7-1.7-1.9-1.7-3.7
		c0-1.2,0.2-2.2,0.7-2.9c0.5-0.7,1-1.2,1.7-1.6c0.7-0.4,1.4-0.6,2.2-0.7c0.8-0.1,1.5-0.1,2.2-0.1h5.7V208.3z M282.8,213.8
		c0.1-0.1,0.1-0.4,0-0.8l-0.4-3.5c0-0.3-0.1-0.5-0.3-0.7c-0.1-0.1-0.4-0.1-0.7-0.1c-0.3,0-0.6,0.1-1.1,0.1c-0.4,0.1-0.8,0.1-1.1,0.1
		c-0.8,0-1.3-0.2-1.6-0.6c-0.3-0.4-0.4-1.1-0.4-2.2v-35.9c0-0.5-0.1-0.7-0.3-0.9c-0.2-0.1-0.5-0.2-0.9-0.2h-1.9
		c-1.3,0.1-3.9,0.8-3.9,4.7v34c0,2.7,0.5,4.6,1.5,5.6c1,1.1,2.6,1.6,4.9,1.6c0.8,0,1.7-0.1,2.7-0.2c1-0.1,1.9-0.3,2.7-0.7
		C282.5,214.1,282.7,214,282.8,213.8 M267.6,213.8c0.1-0.1,0.1-0.4,0-0.8l-0.4-3.5c0-0.3-0.1-0.5-0.3-0.7c-0.1-0.1-0.4-0.1-0.7-0.1
		c-0.3,0-0.6,0.1-1,0.1c-0.4,0.1-0.8,0.1-1.1,0.1c-0.8,0-1.3-0.2-1.6-0.6c-0.3-0.4-0.4-1.1-0.4-2.2v-35.9c0-0.5-0.1-0.7-0.3-0.9
		c-0.2-0.1-0.5-0.2-0.9-0.2H259c-1.3,0.1-3.8,0.8-3.9,4.5v34.2c0,2.7,0.5,4.6,1.6,5.6c1,1.1,2.6,1.6,4.9,1.6c0.8,0,1.7-0.1,2.7-0.2
		c1-0.1,1.9-0.3,2.7-0.7C267.3,214.1,267.5,214,267.6,213.8 M252,197.6c0.2-0.7,0.3-1.6,0.3-2.7c0-4.3-1.1-7.6-3.3-10
		c-2.2-2.4-5.6-3.7-10.1-3.7c-2.1,0-4,0.4-5.7,1.2c-1.7,0.7-3.2,1.9-4.5,3.3c-1.2,1.4-2.2,3.3-2.9,5.4c-0.7,2.1-1.1,4.5-1.1,7.3
		c0,5.8,1.3,10.1,3.8,12.7c2.5,2.7,6.2,4,11,4c1.6,0,3.3-0.2,5.1-0.6c1.8-0.4,3.4-1,4.9-2c0.5-0.3,0.7-0.8,0.4-1.4l-1.6-3.5
		c-0.3-0.5-0.7-0.6-1.3-0.4c-0.9,0.5-2,0.9-3.2,1.2c-1.2,0.3-2.5,0.5-3.7,0.5c-1.1,0-2.2-0.2-3.2-0.4c-1-0.3-1.8-0.8-2.6-1.5
		c-0.7-0.7-1.3-1.6-1.8-2.6c-0.4-1.1-0.7-2.4-0.7-4.1h15.8c0.7,0,1.3-0.1,1.9-0.3c0.6-0.1,1.1-0.4,1.5-0.9
		C251.4,198.8,251.7,198.3,252,197.6 M245.7,195.1h-13.6c0-1,0.2-2,0.6-3c0.4-1,0.9-1.8,1.4-2.5c0.6-0.7,1.3-1.3,2.1-1.8
		c0.8-0.4,1.8-0.6,2.8-0.6c1.4,0,2.4,0.2,3.3,0.6c0.8,0.4,1.5,1,2,1.7c0.5,0.7,0.8,1.5,1,2.5C245.6,193,245.7,194,245.7,195.1
		 M221.5,204.7c0.6-2.1,0.9-4.4,0.9-6.9c0-2.4-0.3-4.6-0.8-6.6c-0.6-2.1-1.3-3.8-2.4-5.3c-1.1-1.5-2.5-2.6-4.2-3.4
		c-1.7-0.9-3.8-1.3-6.1-1.3c-1.1,0-2.3,0.1-3.7,0.3c-1.4,0.2-2.6,0.5-3.8,0.8l-0.1-12c0-0.5-0.1-0.8-0.2-0.9
		c-0.1-0.1-0.4-0.2-0.9-0.2h-1.9c-1.3,0.1-3.8,0.8-3.9,4.7v37.6c0,0.4,0.1,0.6,0.2,0.9c0.1,0.2,0.4,0.4,0.7,0.6
		c1.8,0.8,3.7,1.4,5.8,1.7c2.1,0.4,4.2,0.5,6.2,0.5c2.6,0,4.8-0.4,6.8-1.3c1.9-0.9,3.4-2.1,4.7-3.6
		C220,208.7,220.9,206.9,221.5,204.7 M215.2,198.2c0,2-0.2,3.6-0.6,5c-0.4,1.4-1,2.5-1.7,3.4c-0.7,0.9-1.6,1.5-2.6,1.9
		c-1,0.4-2.2,0.6-3.4,0.6c-0.8,0-1.7,0-2.7-0.2c-1-0.1-2-0.3-3-0.6v-19.8c1.3-0.4,2.5-0.7,3.6-0.8c1.2-0.1,2.1-0.2,2.7-0.2
		c2.4,0,4.2,0.9,5.6,2.7C214.6,191.8,215.2,194.6,215.2,198.2 M190.6,211v-18.6c0-3.6-1-6.4-2.9-8.3c-1.9-1.9-4.9-2.8-9-2.8
		c-1.7,0-3.6,0.1-5.6,0.4c-2,0.3-3.8,0.8-5.5,1.4c-0.5,0.2-0.7,0.6-0.5,1.3l0.8,3.5c0.1,0.4,0.2,0.6,0.5,0.7c0.2,0.1,0.5,0,0.9-0.1
		c1-0.3,2.3-0.6,3.9-0.8c1.6-0.3,3-0.4,4.4-0.4c1.3,0,2.3,0.1,3.1,0.4c0.8,0.3,1.4,0.7,1.9,1.1c0.5,0.5,0.7,1.1,0.9,1.7
		c0.2,0.7,0.2,1.4,0.2,2.2v1H177c-2.4,0-4.4,0.3-6,0.9c-1.6,0.6-2.9,1.4-4,2.4c-1,1-1.8,2.2-2.2,3.5c-0.5,1.3-0.7,2.7-0.7,4.2
		c0,1.4,0.2,2.7,0.6,4c0.4,1.3,1.1,2.3,2.1,3.3c1,0.9,2.4,1.7,4.1,2.2c1.7,0.6,3.9,0.8,6.5,0.8c1,0,1.9,0,3-0.1
		c1.1-0.1,2.1-0.2,3.2-0.3c1.1-0.2,2.1-0.4,3.1-0.7c1-0.3,1.9-0.6,2.8-1.1C190.3,212.6,190.6,211.9,190.6,211 M183.6,208.3
		c-0.5,0.2-1.1,0.4-1.7,0.5c-0.6,0.1-1.2,0.2-1.7,0.3c-0.6,0.1-1.1,0.1-1.6,0.2c-0.5,0-0.9,0.1-1.1,0.1c-1.9,0-3.4-0.4-4.6-1.1
		c-1.2-0.7-1.7-1.9-1.7-3.7c0-1.2,0.2-2.2,0.7-2.9c0.5-0.7,1-1.2,1.7-1.6c0.7-0.4,1.4-0.6,2.2-0.7c0.8-0.1,1.5-0.1,2.2-0.1h5.7
		V208.3z M162.5,214.3c0.4-0.2,0.6-0.4,0.7-0.5c0.1-0.1,0.1-0.4,0-0.8l-0.4-3.5c-0.1-0.3-0.1-0.5-0.3-0.7c-0.1-0.1-0.4-0.1-0.7-0.1
		c-0.3,0-0.6,0.1-1,0.1c-0.4,0.1-0.8,0.1-1.1,0.1c-0.8,0-1.3-0.2-1.6-0.6c-0.3-0.4-0.4-1.1-0.4-2.2v-35.9c0-0.5-0.1-0.7-0.2-0.9
		c-0.2-0.1-0.5-0.2-0.9-0.2h-1.9c-1.3,0.1-3.9,0.8-3.9,4.8v33.9c0,2.7,0.5,4.6,1.5,5.6c1,1.1,2.6,1.6,4.9,1.6c0.8,0,1.7-0.1,2.7-0.2
		C160.8,214.9,161.8,214.7,162.5,214.3 M146.4,211v-18.6c0-3.6-1-6.4-2.9-8.3c-1.9-1.9-4.9-2.8-9-2.8c-1.7,0-3.6,0.1-5.6,0.4
		c-2,0.3-3.8,0.8-5.4,1.4c-0.5,0.2-0.7,0.6-0.5,1.3l0.8,3.5c0.1,0.4,0.2,0.6,0.4,0.7c0.2,0.1,0.5,0,0.9-0.1c1-0.3,2.3-0.6,3.9-0.8
		c1.6-0.3,3-0.4,4.4-0.4c1.3,0,2.3,0.1,3.1,0.4c0.8,0.3,1.4,0.7,1.9,1.1c0.4,0.5,0.8,1.1,0.9,1.7c0.1,0.7,0.2,1.4,0.2,2.2v1h-6.6
		c-2.3,0-4.4,0.3-6,0.9c-1.6,0.6-2.9,1.4-4,2.4c-1,1-1.8,2.2-2.2,3.5c-0.5,1.3-0.7,2.7-0.7,4.2c0,1.4,0.2,2.7,0.6,4
		c0.4,1.3,1.1,2.3,2.1,3.3c1,0.9,2.4,1.7,4.1,2.2c1.7,0.6,3.9,0.8,6.5,0.8c1,0,1.9,0,3-0.1c1-0.1,2.1-0.2,3.2-0.3
		c1.1-0.2,2.1-0.4,3.1-0.7c1-0.3,1.9-0.6,2.8-1.1C146,212.6,146.4,211.9,146.4,211 M139.4,208.3c-0.5,0.2-1.1,0.4-1.7,0.5
		c-0.6,0.1-1.2,0.2-1.8,0.3c-0.5,0.1-1.1,0.1-1.6,0.2c-0.5,0-0.9,0.1-1.2,0.1c-1.9,0-3.4-0.4-4.6-1.1c-1.1-0.7-1.7-1.9-1.7-3.7
		c0-1.2,0.2-2.2,0.7-2.9c0.5-0.7,1-1.2,1.7-1.6c0.7-0.4,1.4-0.6,2.2-0.7c0.8-0.1,1.5-0.1,2.2-0.1h5.7V208.3z M121.1,177.4
		c0.2-0.2,0.3-0.6,0.3-1.1v-3.8c0-0.5-0.1-0.9-0.2-1.1c-0.1-0.2-0.5-0.3-1-0.3h-16.7c-2,0-3.7,0.3-5,0.9c-1.4,0.6-2.4,1.4-3.3,2.5
		c-0.8,1.1-1.4,2.2-1.8,3.6c-0.3,1.3-0.5,2.7-0.5,4.2v31c0,0.5,0.1,0.9,0.4,1c0.2,0.2,0.6,0.3,1,0.3h1.9c1.3-0.1,4-0.8,4-4.8v-14.3
		h17.8c0.5,0,0.8-0.1,1-0.4c0.1-0.3,0.2-0.6,0.2-1.1v-3.5c0-0.6-0.1-1-0.2-1.1c-0.1-0.2-0.4-0.3-1-0.3h-17.8v-7.2
		c0-1.3,0.3-2.3,0.9-3c0.6-0.7,1.7-1,3.2-1h15.9C120.6,177.7,120.9,177.6,121.1,177.4"/>
	<path class="st0" d="M321.1,211.3c0-2.1-1.7-3.9-3.9-3.9c-2.2,0-3.9,1.7-3.9,3.9c0,2.2,1.7,3.9,3.9,3.9
		C319.3,215.2,321.1,213.4,321.1,211.3"/>
	<path class="st0" d="M317.5,215.2c2.2,0,3.9-1.8,3.9-3.9c0-2.2-1.8-3.9-3.9-3.9c-2.2,0-3.9,1.8-3.9,3.9
		C313.5,213.4,315.3,215.2,317.5,215.2"/>
	<path class="st0" d="M337.5,208.9c1.3,0,2.6-0.2,4-0.5c1.3-0.3,2.4-0.7,3.3-1.1c0.4-0.2,0.8-0.3,0.9-0.2c0.2,0.1,0.4,0.3,0.5,0.6
		l1.5,3.6c0.4,0.7,0.3,1.2-0.4,1.5c-1.7,0.9-3.5,1.6-5.5,1.9c-2,0.3-3.8,0.5-5.5,0.5c-4.6,0-8.1-1.4-10.6-4.2
		c-2.5-2.8-3.7-6.9-3.7-12.5c0-2.6,0.3-4.9,1-7.1c0.7-2.1,1.7-3.9,3-5.4c1.3-1.5,2.9-2.7,4.7-3.5c1.8-0.8,3.9-1.2,6.2-1.2
		c1.7,0,3.3,0.2,4.9,0.5c1.6,0.4,3.1,0.9,4.5,1.6c0.4,0.2,0.6,0.4,0.7,0.6c0.1,0.2,0,0.5-0.2,0.9l-1.5,3.7c-0.2,0.3-0.3,0.5-0.5,0.6
		c-0.2,0.1-0.5,0-1-0.2c-1-0.4-2-0.7-3.1-1c-1.1-0.3-2.2-0.4-3.4-0.4c-1.4,0-2.6,0.3-3.6,0.9c-1,0.6-1.8,1.4-2.5,2.4
		c-0.6,1-1.1,2.1-1.4,3.4c-0.3,1.3-0.4,2.6-0.4,4c0,1.4,0.1,2.8,0.4,4c0.2,1.3,0.7,2.4,1.3,3.3c0.6,1,1.4,1.7,2.4,2.2
		C334.6,208.6,335.9,208.9,337.5,208.9"/>
	<path class="st0" d="M371,198.3c0-1.5-0.1-2.9-0.3-4.2c-0.2-1.3-0.6-2.5-1.2-3.5c-0.6-1-1.3-1.8-2.3-2.4c-1-0.6-2.2-0.9-3.7-0.9
		c-1.3,0-2.5,0.3-3.4,0.8c-1,0.5-1.8,1.3-2.5,2.3c-0.7,1-1.1,2.1-1.5,3.4c-0.3,1.3-0.5,2.8-0.5,4.3c0,3.4,0.5,6.1,1.7,8.1
		c1.1,2,3.1,3,5.9,3c1.4,0,2.7-0.3,3.6-0.9c1-0.6,1.8-1.4,2.4-2.4c0.6-1,1-2.1,1.3-3.5C370.8,201.1,371,199.8,371,198.3
		 M378.3,198.1c0,5.5-1.3,9.7-3.8,12.6c-2.5,2.9-6.3,4.4-11.3,4.4c-5,0-8.7-1.4-11.1-4.3c-2.4-2.9-3.7-7-3.7-12.6
		c0-2.7,0.4-5.1,1.1-7.2c0.7-2.1,1.8-3.9,3.1-5.3c1.3-1.4,2.9-2.5,4.7-3.3c1.8-0.8,3.9-1.1,6.1-1.1c4.9,0,8.6,1.5,11.1,4.5
		C377,188.8,378.3,192.9,378.3,198.1"/>
	<path class="st0" d="M387.8,214.3c-0.2,0.1-0.5,0.2-0.9,0.2H382c-0.4,0-0.7-0.1-0.9-0.2c-0.2-0.1-0.3-0.4-0.3-0.9v-26.2
		c0-0.7,0.1-1.4,0.2-2c0.1-0.6,0.3-1.1,0.6-1.5c0.3-0.4,0.7-0.8,1.3-1.1c0.5-0.3,1.3-0.5,2.1-0.7c0.3-0.1,0.7-0.1,1.4-0.2
		c0.6-0.1,1.3-0.1,2-0.2c0.7-0.1,1.4-0.1,2.1-0.1c0.7,0,1.3-0.1,1.8-0.1c2.5,0,4.7,0.2,6.4,0.7c1.8,0.5,3.3,1.3,4.7,2.3
		c1.4-0.9,3.1-1.7,5.1-2.3c2-0.6,4-0.8,6.3-0.8c2.5,0,4.7,0.4,6.5,1.1c1.8,0.7,3.3,1.8,4.4,3.1c1.1,1.3,2,2.9,2.5,4.8
		c0.5,1.9,0.8,3.9,0.8,6.1v17c0,0.5-0.1,0.8-0.3,0.9c-0.2,0.1-0.5,0.2-1,0.2H423c-0.4,0-0.7-0.1-0.9-0.2c-0.2-0.1-0.3-0.4-0.3-0.9
		v-16c0-3.3-0.6-5.8-1.8-7.4c-1.2-1.6-3.3-2.4-6.3-2.4c-1.1,0-2.3,0.1-3.6,0.4c-1.3,0.3-2.4,0.6-3.2,1.1c0.5,1.1,0.8,2.4,1,3.7
		c0.2,1.3,0.3,2.8,0.3,4.3v16.3c0,0.5-0.1,0.8-0.3,0.9c-0.2,0.1-0.5,0.2-0.9,0.2h-4.8c-0.4,0-0.7-0.1-0.9-0.2
		c-0.2-0.1-0.3-0.4-0.3-0.9V197c0-1.4-0.1-2.7-0.3-3.9c-0.2-1.2-0.6-2.1-1.2-3c-0.6-0.8-1.4-1.5-2.5-1.9c-1.1-0.5-2.5-0.7-4.2-0.7
		c-0.3,0-0.6,0-1,0c-0.4,0-0.8,0-1.3,0.1c-0.5,0-0.9,0.1-1.3,0.1c-0.4,0.1-0.8,0.1-1.1,0.1v25.5C388,213.9,388,214.2,387.8,214.3"/>
</g>
</svg>
