<?xml version="1.0" encoding="utf-8"?>
<!-- Generator: Adobe Illustrator 19.2.1, SVG Export Plug-In . SVG Version: 6.00 Build 0)  -->
<svg version="1.1" id="Capa_1" xmlns="http://www.w3.org/2000/svg" xmlns:xlink="http://www.w3.org/1999/xlink" x="0px" y="0px"
	 viewBox="0 0 550.1 151.6" style="enable-background:new 0 0 550.1 151.6;" xml:space="preserve">
<style type="text/css">
	.st0{fill:#00AF04;}
</style>
<path class="st0" d="M247.5,64.5C241.2,27.9,209.8,0.8,172.6,0c-37.2,0.8-68.5,27.9-74.9,64.5H0v20.6h97.5
	c3.3,38.6,36.4,67.9,75.2,66.5c38.8,1.4,71.9-27.8,75.2-66.5h54.2l0-20.6H247.5z M172.6,130.3c-30.4,0-55-24.6-55-55s24.6-55,55-55
	s55,24.6,55,55S203,130.3,172.6,130.3z"/>
<path class="st0" d="M247.1,64.5l0,20.6h54.2c3.3,38.7,36.4,67.9,75.2,66.5c38.8,1.4,71.9-27.9,75.2-66.5h98.4V64.5h-98.6
	C445.1,27.9,413.8,0.8,376.6,0c-37.2,0.8-68.6,27.9-74.9,64.5H247.1z M321.6,75.3c0-30.4,24.6-55,55-55s55,24.6,55,55
	s-24.6,55-55,55S321.6,105.7,321.6,75.3z"/>
</svg>
