<?xml version="1.0" encoding="utf-8"?>
<!-- Generator: Adobe Illustrator 20.0.0, SVG Export Plug-In . SVG Version: 6.00 Build 0)  -->
<svg version="1.1" id="Capa_1" xmlns="http://www.w3.org/2000/svg" xmlns:xlink="http://www.w3.org/1999/xlink" x="0px" y="0px"
	 viewBox="0 0 550.1 151.6" style="enable-background:new 0 0 550.1 151.6;" xml:space="preserve">
<style type="text/css">
	.st0{fill:#00AF04;}
</style>
<path class="st0" d="M174.5,64.5C168.2,27.9,136.8,0.8,99.6,0C62.4,0.8,31.1,27.9,24.7,64.5H0v20.6h24.5
	c3.3,38.6,36.4,67.9,75.2,66.5c38.8,1.4,71.9-27.8,75.2-66.5h42.2V64.5C217.1,64.5,174.5,64.5,174.5,64.5z M99.6,130.3
	c-30.4,0-55-24.6-55-55s24.6-55,55-55s55,24.6,55,55S130,130.3,99.6,130.3z"/>
<path class="st0" d="M334.1,64.5v20.6h47.2c3.3,38.7,36.4,67.9,75.2,66.5c38.8,1.4,71.9-27.9,75.2-66.5h18.4V64.5h-18.6
	C525.1,27.9,493.8,0.8,456.6,0c-37.2,0.8-68.6,27.9-74.9,64.5H334.1z M401.6,75.3c0-30.4,24.6-55,55-55s55,24.6,55,55
	s-24.6,55-55,55S401.6,105.7,401.6,75.3z"/>
<path class="st0" d="M158.5,64.5v20.6h42.2c3.3,38.7,36.4,67.9,75.2,66.5c38.8,1.4,71.9-27.9,75.2-66.5h38.4V64.5H351
	C344.5,27.9,313.2,0.8,276,0c-37.2,0.8-68.6,27.9-74.9,64.5H158.5z M221,75.3c0-30.4,24.6-55,55-55c30.4,0,55,24.6,55,55
	s-24.6,55-55,55C245.6,130.3,221,105.7,221,75.3z"/>
</svg>
