<?xml version="1.0" encoding="utf-8"?>
<!-- Generator: Adobe Illustrator 20.0.0, SVG Export Plug-In . SVG Version: 6.00 Build 0)  -->
<svg version="1.1" id="Capa_1" xmlns="http://www.w3.org/2000/svg" xmlns:xlink="http://www.w3.org/1999/xlink" x="0px" y="0px"
	 viewBox="0 0 550.1 151.6" style="enable-background:new 0 0 550.1 151.6;" xml:space="preserve">
<style type="text/css">
	.st0{fill:#00AF04;}
</style>
<path class="st0" d="M73.8,139.5c-34.7,0-62.9-28.2-62.9-62.9s28.2-62.9,62.9-62.9s62.9,28.2,62.9,62.9S108.5,139.5,73.8,139.5z
	 M73.8,27.9c-26.9,0-48.7,21.9-48.7,48.7s21.9,48.7,48.7,48.7s48.7-21.9,48.7-48.7S100.7,27.9,73.8,27.9z"/>
<path class="st0" d="M207.5,139.5c-34.7,0-62.9-28.2-62.9-62.9s28.2-62.9,62.9-62.9s62.9,28.2,62.9,62.9S242.2,139.5,207.5,139.5z
	 M207.5,27.9c-26.9,0-48.7,21.9-48.7,48.7s21.9,48.7,48.7,48.7s48.7-21.9,48.7-48.7S234.4,27.9,207.5,27.9z"/>
<path class="st0" d="M341.3,139.5c-34.7,0-62.9-28.2-62.9-62.9s28.2-62.9,62.9-62.9s62.9,28.2,62.9,62.9S376,139.5,341.3,139.5z
	 M341.3,27.9c-26.9,0-48.7,21.9-48.7,48.7s21.9,48.7,48.7,48.7S390,103.4,390,76.6S368.1,27.9,341.3,27.9z"/>
<g>
	<rect x="-0.3" y="71.1" class="st0" width="24.6" height="12.9"/>
	<rect x="127.6" y="71.1" class="st0" width="24.6" height="12.9"/>
	<rect x="261.6" y="71.1" class="st0" width="24.6" height="12.9"/>
	<path class="st0" d="M550.1,71.1h-12.4C534.9,39,507.8,13.6,475,13.6S415.1,39,412.3,71.1h-16.7v12.9h16.9
		c3.7,31.2,30.3,55.4,62.5,55.4s58.8-24.3,62.5-55.4h12.7V71.1z M475,125.3c-26.9,0-48.7-21.9-48.7-48.7s21.9-48.7,48.7-48.7
		s48.7,21.9,48.7,48.7S501.8,125.3,475,125.3z"/>
</g>
</svg>
