<?xml version="1.0" encoding="utf-8"?>
<!-- Generator: Adobe Illustrator 19.2.1, SVG Export Plug-In . SVG Version: 6.00 Build 0)  -->
<svg version="1.1" id="Capa_1" xmlns="http://www.w3.org/2000/svg" xmlns:xlink="http://www.w3.org/1999/xlink" x="0px" y="0px"
	 viewBox="0 0 550.1 151.6" style="enable-background:new 0 0 550.1 151.6;" xml:space="preserve">
<style type="text/css">
	.st0{fill:#00AF04;}
	.st1{fill:#2671DD;}
</style>
<path class="st0" d="M186.5,64.5C180.2,27.9,148.8,0.8,111.6,0C74.4,0.8,43.1,27.9,36.7,64.5H0v20.6h36.5
	c3.3,38.6,36.4,67.9,75.2,66.5c38.8,1.4,71.9-27.8,75.2-66.5h4.2V64.5C191.1,64.5,186.5,64.5,186.5,64.5z M111.6,130.3
	c-30.4,0-55-24.6-55-55s24.6-55,55-55s55,24.6,55,55S142,130.3,111.6,130.3z"/>
<path class="st0" d="M353.1,64.5v20.6h9.2c3.3,38.7,36.4,67.9,75.2,66.5c38.8,1.4,71.9-27.9,75.2-66.5h37.4V64.5h-37.6
	C506.1,27.9,474.8,0.8,437.6,0c-37.2,0.8-68.6,27.9-74.9,64.5H353.1z M382.6,75.3c0-30.4,24.6-55,55-55s55,24.6,55,55
	s-24.6,55-55,55S382.6,105.7,382.6,75.3z"/>
<path class="st1" d="M191.1,64.5v20.6h4.2c3.3,38.7,36.4,67.9,75.2,66.5c38.8,1.4,71.9-27.9,75.2-66.5h8.4V64.5h-8.6
	C339.1,27.9,307.8,0.8,270.6,0c-37.2,0.8-68.6,27.9-74.9,64.5H191.1z M215.6,75.3c0-30.4,24.6-55,55-55s55,24.6,55,55
	s-24.6,55-55,55S215.6,105.7,215.6,75.3z"/>
<circle class="st1" cx="270.6" cy="76.1" r="35.9"/>
</svg>
