<?xml version="1.0" standalone="no"?>
<!DOCTYPE svg PUBLIC "-//W3C//DTD SVG 20010904//EN"
 "http://www.w3.org/TR/2001/REC-SVG-20010904/DTD/svg10.dtd">
<svg version="1.0" xmlns="http://www.w3.org/2000/svg"
 width="260.000000pt" height="260.000000pt" viewBox="0 0 260.000000 260.000000"
 preserveAspectRatio="xMidYMid meet">
<metadata>
Created by potrace 1.11, written by Peter Selinger 2001-2013
</metadata>
<g transform="translate(0.000000,260.000000) scale(0.100000,-0.100000)"
fill="#000000" stroke="none">
<path d="M0 1300 l0 -1300 1300 0 1300 0 0 1300 0 1300 -1300 0 -1300 0 0
-1300z m1120 704 c110 -24 237 -93 326 -177 57 -53 87 -74 109 -75 46 -3 85
-47 85 -97 0 -76 -81 -122 -150 -85 -29 16 -51 71 -43 110 5 29 1 36 -50 83
-70 66 -145 111 -239 145 -66 24 -87 27 -208 27 -121 0 -142 -3 -208 -27 -312
-113 -491 -422 -428 -738 42 -211 195 -400 385 -476 44 -17 56 -36 41 -65 -15
-28 -48 -24 -126 16 -184 92 -322 270 -375 485 -18 70 -21 104 -16 195 9 200
73 344 216 485 186 184 421 251 681 194z m232 -511 c54 -31 68 -72 68 -196 0
-79 4 -116 16 -139 29 -56 -20 -107 -67 -69 -21 17 -24 17 -58 -1 -76 -39
-193 -11 -224 55 -21 44 -21 80 -1 123 23 49 82 74 172 74 66 0 72 2 72 20 0
12 -11 32 -25 45 -28 29 -77 33 -131 10 -26 -11 -41 -12 -55 -5 -23 13 -25 53
-4 70 51 42 175 49 237 13z m545 12 c50 -21 72 -42 94 -90 21 -46 25 -125 7
-143 -8 -8 -53 -12 -135 -12 -79 0 -123 -4 -123 -10 0 -21 30 -70 49 -80 32
-17 79 -11 128 15 35 18 51 22 65 14 46 -25 -2 -97 -80 -119 -101 -28 -190 4
-230 83 -19 37 -25 63 -25 124 -1 95 13 139 57 182 52 51 125 64 193 36z m444
-10 c55 -29 64 -55 26 -80 -21 -14 -28 -14 -60 0 -44 18 -108 20 -125 3 -18
-18 -15 -56 6 -62 9 -3 46 -10 82 -15 101 -16 144 -60 137 -138 -6 -58 -30
-91 -85 -115 -114 -51 -311 26 -252 98 17 19 38 18 85 -6 70 -36 155 -22 155
25 0 31 -8 35 -98 51 -57 10 -81 19 -103 40 -68 65 -38 178 56 213 41 15 134
7 176 -14z m-1798 -3 c9 -10 41 -70 71 -133 52 -110 54 -113 65 -86 87 223
106 251 151 227 30 -16 25 -46 -29 -182 -92 -231 -97 -240 -128 -236 -25 3
-36 20 -121 191 -91 182 -93 188 -78 212 19 29 46 32 69 7z m455 6 c13 -13 17
-385 4 -404 -13 -19 -39 -23 -61 -8 -20 15 -21 23 -21 208 0 202 3 216 45 216
12 0 26 -5 33 -12z m588 -13 c23 -36 17 -455 -8 -501 -19 -35 -55 -54 -102
-54 -66 0 -78 66 -16 86 l35 12 3 228 c1 147 6 232 13 241 18 21 57 15 75 -12z
m-286 -750 c0 -113 2 -135 15 -135 8 0 15 -9 15 -20 0 -28 -65 -29 -80 -1 -11
21 -14 248 -4 275 3 9 17 16 30 16 l24 0 0 -135z m290 95 l0 -40 44 0 c27 0
52 -7 65 -17 29 -24 43 -87 30 -135 -15 -56 -43 -78 -102 -78 -87 0 -87 1 -87
159 0 76 3 141 7 144 3 4 15 7 25 7 14 0 18 -8 18 -40z m420 -95 c0 -113 2
-135 15 -135 8 0 15 -9 15 -20 0 -28 -65 -29 -80 -1 -11 21 -14 248 -4 275 3
9 17 16 30 16 l24 0 0 -135z m100 1 c0 -127 1 -134 21 -139 35 -9 16 -32 -27
-32 l-39 0 -3 140 c-1 76 0 145 2 152 3 7 15 13 26 13 19 0 20 -6 20 -134z
m-1060 99 c0 -23 -3 -24 -72 -27 l-73 -3 -3 -32 -3 -33 65 0 c64 0 66 -1 66
-25 0 -24 -2 -25 -65 -25 l-64 0 -3 -62 c-3 -57 -5 -63 -26 -66 l-24 -4 4 137
c4 165 3 165 120 165 76 0 78 -1 78 -25z m149 -71 c17 -22 21 -41 21 -105 0
-91 -7 -99 -88 -99 -63 0 -95 24 -95 69 0 44 30 72 87 78 49 6 55 13 31 33 -9
8 -28 10 -55 5 -36 -6 -40 -5 -40 13 0 25 12 30 72 31 39 1 50 -3 67 -25z
m297 12 c16 -12 20 -29 23 -102 4 -104 -4 -114 -85 -114 -66 0 -98 23 -96 70
1 45 30 71 86 77 48 6 55 13 32 32 -9 7 -29 9 -55 5 -37 -6 -41 -4 -41 14 0
11 6 23 13 25 26 11 104 6 123 -7z m414 -4 c17 -14 23 -30 24 -63 l1 -44 -67
-3 c-75 -3 -88 -18 -43 -48 19 -13 31 -14 54 -6 26 9 31 8 37 -10 8 -27 -10
-38 -67 -38 -75 0 -107 44 -96 138 4 34 12 53 32 69 33 29 93 31 125 5z m398
2 c20 -14 22 -23 22 -108 0 -107 1 -106 -86 -106 -41 0 -59 5 -74 20 -22 22
-26 60 -10 90 10 20 59 40 96 40 27 0 33 25 8 34 -9 4 -32 4 -50 0 -26 -5 -35
-2 -40 11 -4 10 -1 21 7 26 23 14 103 10 127 -7z m97 -189 c0 -22 -31 -33 -47
-17 -17 17 -1 44 24 40 15 -2 23 -10 23 -23z"/>
<path d="M1188 1249 c-21 -12 -24 -59 -6 -77 7 -7 34 -12 60 -12 57 0 88 24
88 70 l0 30 -62 0 c-35 0 -71 -5 -80 -11z"/>
<path d="M1782 1423 c-13 -5 -42 -55 -42 -73 0 -6 32 -10 85 -10 83 0 85 0 85
24 0 46 -75 81 -128 59z"/>
<path d="M1612 742 c-22 -3 -23 -7 -20 -70 3 -63 4 -67 29 -70 38 -4 61 27 57
78 -3 47 -27 69 -66 62z"/>
<path d="M1094 645 c-12 -29 4 -46 38 -43 28 2 34 8 36 31 3 25 1 27 -33 27
-22 0 -38 -6 -41 -15z"/>
<path d="M1394 645 c-12 -29 4 -46 38 -43 28 2 34 8 36 31 3 25 1 27 -33 27
-22 0 -38 -6 -41 -15z"/>
<path d="M1823 738 c-27 -35 -25 -38 21 -38 50 0 63 20 27 40 -26 13 -36 13
-48 -2z"/>
<path d="M2204 645 c-9 -23 15 -45 47 -45 26 0 29 4 29 30 0 28 -3 30 -35 30
-23 0 -38 -6 -41 -15z"/>
</g>
</svg>
